<?xml version="1.0" encoding="utf-8"?>
<!-- Generator: Adobe Illustrator 16.0.4, SVG Export Plug-In . SVG Version: 6.00 Build 0)  -->
<!DOCTYPE svg PUBLIC "-//W3C//DTD SVG 1.1//EN" "http://www.w3.org/Graphics/SVG/1.1/DTD/svg11.dtd">
<svg version="1.1" id="Layer_1" xmlns="http://www.w3.org/2000/svg" xmlns:xlink="http://www.w3.org/1999/xlink" x="0px" y="0px"
	 width="36px" height="36px" viewBox="0 0 36 36" enable-background="new 0 0 36 36" xml:space="preserve">
<path fill="none" stroke="#000000" stroke-width="2.1194" stroke-miterlimit="10" d="M30.69,17.994l2.85-2.798
	c0.853-0.807,0.454-2.24-0.661-2.507l-3.885-0.995l1.095-3.855c0.308-1.109-0.733-2.155-1.839-1.844l-3.846,1.098l-0.989-3.896
	c-0.262-1.102-1.71-1.504-2.5-0.663l-2.791,2.88l-2.789-2.88c-0.783-0.831-2.236-0.45-2.501,0.663l-0.991,3.896L7.997,5.994
	C6.89,5.683,5.85,6.729,6.16,7.838l1.094,3.856l-3.886,0.995c-1.115,0.267-1.511,1.701-0.662,2.506l2.852,2.8l-2.852,2.798
	c-0.85,0.806-0.454,2.241,0.662,2.508l3.886,0.994l-1.095,3.857c-0.309,1.108,0.732,2.153,1.838,1.843l3.846-1.099l0.991,3.898
	c0.275,1.154,1.718,1.492,2.501,0.663l2.789-2.86l2.791,2.86c0.774,0.84,2.231,0.465,2.5-0.663l0.99-3.898l3.846,1.099
	c1.105,0.311,2.147-0.734,1.839-1.843l-1.095-3.857l3.885-0.994c1.115-0.267,1.513-1.702,0.662-2.508L30.69,17.994L30.69,17.994z"/>
</svg>
