<?xml version="1.0" encoding="utf-8"?>
<!-- Generator: Adobe Illustrator 16.0.4, SVG Export Plug-In . SVG Version: 6.00 Build 0)  -->
<!DOCTYPE svg PUBLIC "-//W3C//DTD SVG 1.1//EN" "http://www.w3.org/Graphics/SVG/1.1/DTD/svg11.dtd">
<svg version="1.1" id="Layer_1" xmlns="http://www.w3.org/2000/svg" xmlns:xlink="http://www.w3.org/1999/xlink" x="0px" y="0px"
	 width="36px" height="36px" viewBox="0 0 36 36" enable-background="new 0 0 36 36" xml:space="preserve">
<path stroke="#000000" stroke-width="1.0931" stroke-miterlimit="10" d="M5.374,1.584c0.21,0.063,0.427,0.115,0.636,0.187
	c1.28,0.448,2.164,1.593,2.183,2.948c0.031,2.362,0.017,4.725,0.018,7.085c0.001,6.316,0,12.633,0,18.947
	c0,0.151,0.006,0.301-0.011,0.449c-0.035,0.28-0.204,0.442-0.483,0.47c-0.28,0.021-0.471-0.107-0.559-0.376
	c-0.03-0.09-0.037-0.188-0.043-0.285c-0.089-1.24-1.071-2.111-2.319-2.054c-1.141,0.052-2.058,1.051-2.038,2.219
	c0.021,1.184,0.98,2.141,2.184,2.144c2.345,0.012,4.689,0.005,7.034,0.005c6.525-0.001,13.048-0.001,19.572-0.002
	c1.104,0,1.775-0.67,1.775-1.77c0.003-7.908,0.003-15.817,0.003-23.725c0-1.196-0.668-1.87-1.856-1.87
	c-7.11,0-13.129,0-20.239,0.001c-0.107,0-0.214,0.003-0.319-0.005c-0.282-0.025-0.481-0.22-0.507-0.488
	c-0.025-0.276,0.154-0.523,0.437-0.586c0.091-0.02,0.191-0.017,0.286-0.017c7.185,0,13.278,0,20.462,0
	c1.377,0,2.435,0.83,2.768,2.162c0.012,0.048,0.039,0.093,0.062,0.14c0,8.316,0,16.629,0,24.946
	c-0.024,0.067-0.05,0.137-0.066,0.207c-0.286,1.071-0.96,1.75-2.031,2.034c-0.067,0.02-0.138,0.043-0.205,0.067
	c-9.211,0-18.423,0-27.633,0c-0.057-0.022-0.113-0.048-0.174-0.061c-1.335-0.315-2.182-1.141-2.551-2.461
	c-0.028-0.101-0.059-0.202-0.088-0.301c0-9.064,0-18.125,0-27.189c0.024-0.069,0.05-0.135,0.068-0.203
	c0.292-1.22,1.027-2.043,2.208-2.459C4.119,1.68,4.301,1.636,4.481,1.583C4.776,1.584,5.076,1.584,5.374,1.584z M7.116,28.66
	c0-0.149,0-0.244,0-0.338c0-7.778,0-15.558-0.002-23.336c0-0.202-0.008-0.409-0.052-0.603C6.807,3.292,5.783,2.56,4.712,2.686
	c-1.14,0.136-1.956,1.06-1.958,2.239c-0.003,7.812-0.001,15.624,0,23.435c0,0.087,0.013,0.175,0.022,0.287
	C4.075,27.615,5.725,27.573,7.116,28.66z"/>
<g id="_x34_o4Uvz_1_">
	<g>
		<g>
			<path fill="none" d="M31.576,31.03c-7.32,0-14.642,0-21.963,0c0-7.556,0-15.11,0-22.666c7.321,0,14.643,0,21.963,0
				C31.576,15.92,31.576,23.475,31.576,31.03z M9.65,19.483C9.581,25.9,14.489,30.979,20.574,30.984
				c5.985,0.005,10.906-4.906,10.951-11.212c0.021-3.035-1.006-5.708-3.064-7.903c-2.141-2.284-4.783-3.458-7.859-3.458
				C14.5,8.412,9.744,13.458,9.65,19.483z"/>
			<path fill-rule="evenodd" clip-rule="evenodd" d="M9.65,19.483C9.744,13.458,14.5,8.412,20.602,8.412
				c3.076-0.001,5.719,1.174,7.859,3.458c2.059,2.195,3.086,4.868,3.064,7.903c-0.045,6.306-4.966,11.217-10.951,11.212
				C14.489,30.979,9.581,25.9,9.65,19.483z M11.755,19.646c-0.057,5.072,4.002,9.261,8.982,9.181
				c4.785-0.078,8.776-4.167,8.699-9.268c-0.074-4.95-4.017-9.068-8.999-8.988C15.636,10.647,11.729,14.746,11.755,19.646z"/>
			<path fill-rule="evenodd" clip-rule="evenodd" fill="none" d="M11.755,19.646c-0.026-4.9,3.881-8.998,8.683-9.075
				c4.982-0.08,8.925,4.038,8.999,8.988c0.077,5.101-3.914,9.189-8.699,9.268C15.757,28.906,11.698,24.718,11.755,19.646z
				 M26.947,16.891c-0.051-0.112-0.077-0.247-0.155-0.332c-0.34-0.372-0.689-0.735-1.047-1.089c-0.192-0.19-0.428-0.185-0.643-0.016
				c-0.055,0.043-0.105,0.091-0.154,0.141c-0.986,1.007-1.974,2.013-2.958,3.023c-0.996,1.02-1.987,2.045-2.981,3.066
				c-0.231,0.236-0.172,0.256-0.42-0.003c-0.812-0.845-1.622-1.691-2.436-2.533c-0.219-0.228-0.505-0.236-0.723-0.021
				c-0.35,0.348-0.694,0.702-1.033,1.061c-0.176,0.187-0.175,0.483-0.01,0.679c0.09,0.108,0.182,0.213,0.279,0.312
				c0.923,0.959,1.849,1.915,2.773,2.873c0.314,0.326,0.621,0.661,0.938,0.984c0.262,0.268,0.558,0.27,0.805,0.016
				c0.97-0.99,1.938-1.98,2.905-2.973c0.998-1.024,1.992-2.052,2.991-3.076c0.549-0.564,1.102-1.125,1.654-1.686
				C26.847,17.204,26.923,17.074,26.947,16.891z"/>
			<path fill-rule="evenodd" clip-rule="evenodd" d="M26.947,16.891c-0.024,0.184-0.101,0.313-0.213,0.428
				c-0.553,0.561-1.105,1.122-1.654,1.686c-0.999,1.024-1.993,2.052-2.991,3.076c-0.967,0.992-1.936,1.982-2.905,2.973
				c-0.248,0.254-0.543,0.252-0.805-0.016c-0.318-0.323-0.625-0.658-0.938-0.984c-0.924-0.958-1.85-1.914-2.773-2.873
				c-0.097-0.1-0.189-0.204-0.279-0.312c-0.165-0.195-0.167-0.492,0.01-0.679c0.339-0.358,0.683-0.713,1.033-1.061
				c0.217-0.216,0.504-0.207,0.723,0.021c0.814,0.842,1.624,1.688,2.436,2.533c0.249,0.259,0.189,0.239,0.42,0.003
				c0.994-1.021,1.985-2.047,2.981-3.066c0.984-1.01,1.972-2.016,2.958-3.023c0.049-0.05,0.1-0.098,0.154-0.141
				c0.215-0.169,0.45-0.175,0.643,0.016c0.357,0.354,0.707,0.717,1.047,1.089C26.87,16.644,26.896,16.779,26.947,16.891z"/>
		</g>
	</g>
</g>
</svg>
