<?xml version="1.0" encoding="utf-8"?>
<!-- Generator: Adobe Illustrator 16.0.4, SVG Export Plug-In . SVG Version: 6.00 Build 0)  -->
<!DOCTYPE svg PUBLIC "-//W3C//DTD SVG 1.1//EN" "http://www.w3.org/Graphics/SVG/1.1/DTD/svg11.dtd">
<svg version="1.1" id="Layer_1" xmlns="http://www.w3.org/2000/svg" xmlns:xlink="http://www.w3.org/1999/xlink" x="0px" y="0px"
	 width="36px" height="36px" viewBox="0 0 36 36" enable-background="new 0 0 36 36" xml:space="preserve">
<path stroke="#000000" stroke-width="1.0931" stroke-miterlimit="10" d="M5.374,1.584c0.21,0.063,0.427,0.115,0.636,0.187
	c1.28,0.448,2.164,1.593,2.183,2.948c0.031,2.362,0.017,4.725,0.018,7.085c0.001,6.316,0,12.633,0,18.947
	c0,0.151,0.006,0.301-0.011,0.449c-0.035,0.28-0.204,0.442-0.483,0.47c-0.28,0.021-0.471-0.107-0.559-0.376
	c-0.03-0.09-0.037-0.188-0.043-0.285c-0.089-1.24-1.071-2.111-2.319-2.054c-1.141,0.052-2.058,1.051-2.038,2.219
	c0.021,1.184,0.98,2.141,2.184,2.144c2.345,0.012,4.689,0.005,7.034,0.005c6.525-0.001,13.048-0.001,19.572-0.002
	c1.104,0,1.775-0.67,1.775-1.77c0.003-7.908,0.003-15.817,0.003-23.725c0-1.196-0.668-1.87-1.856-1.87
	c-7.11,0-13.129,0-20.239,0.001c-0.107,0-0.214,0.003-0.319-0.005c-0.282-0.025-0.481-0.22-0.507-0.488
	c-0.025-0.276,0.154-0.523,0.437-0.586c0.091-0.02,0.191-0.017,0.286-0.017c7.185,0,13.278,0,20.462,0
	c1.377,0,2.435,0.83,2.768,2.162c0.012,0.048,0.039,0.093,0.062,0.14c0,8.316,0,16.629,0,24.946
	c-0.024,0.067-0.05,0.137-0.066,0.207c-0.286,1.071-0.96,1.75-2.031,2.034c-0.067,0.02-0.138,0.043-0.205,0.067
	c-9.211,0-18.423,0-27.633,0c-0.057-0.022-0.113-0.048-0.174-0.061c-1.335-0.315-2.182-1.141-2.551-2.461
	c-0.028-0.101-0.059-0.202-0.088-0.301c0-9.064,0-18.125,0-27.189c0.024-0.069,0.05-0.135,0.068-0.203
	c0.292-1.22,1.027-2.043,2.208-2.459C4.119,1.68,4.301,1.636,4.481,1.583C4.776,1.584,5.076,1.584,5.374,1.584z M7.116,28.66
	c0-0.149,0-0.244,0-0.338c0-7.778,0-15.558-0.002-23.336c0-0.202-0.008-0.409-0.052-0.603C6.807,3.292,5.783,2.56,4.712,2.686
	c-1.14,0.136-1.956,1.06-1.958,2.239c-0.003,7.812-0.001,15.624,0,23.435c0,0.087,0.013,0.175,0.022,0.287
	C4.075,27.615,5.725,27.573,7.116,28.66z"/>
<path stroke="#000000" stroke-width="0.9922" stroke-miterlimit="10" d="M12.363,10.225c0,3.301,0,6.586,0,9.894
	c2.956,0,5.902,0,8.896,0c0-0.418-0.002-0.84,0-1.262c0.002-0.116,0-0.234,0.031-0.345c0.062-0.242,0.294-0.392,0.529-0.353
	c0.247,0.043,0.417,0.187,0.423,0.443c0.014,0.689,0.016,1.379,0,2.067c-0.006,0.301-0.206,0.459-0.553,0.459
	c-1.248,0.005-2.495,0.002-3.746,0.002c-1.762,0-3.523,0-5.284,0c-0.086,0-0.172,0-0.283,0c0,2.649,0,5.282,0,7.954
	c0.1,0,0.203,0,0.305,0c2.776,0,5.554-0.001,8.333,0.005c0.196,0,0.279-0.032,0.307-0.258c0.353-2.653,2.638-4.685,5.296-4.718
	c0.379-0.006,0.591,0.177,0.593,0.556c0.009,0.96,0.007,1.921,0,2.879c-0.005,0.326-0.214,0.539-0.491,0.542
	c-0.292,0.003-0.494-0.214-0.497-0.56c-0.005-0.785-0.002-1.571-0.002-2.425c-0.386,0.103-0.75,0.159-1.078,0.296
	c-1.79,0.742-2.749,2.099-2.886,4.033c-0.038,0.505-0.171,0.645-0.679,0.645c-3.175,0.002-6.35,0.002-9.523,0
	c-0.543,0-0.698-0.146-0.698-0.683c0-6.508,0-13.017,0-19.526c0-0.504,0.16-0.661,0.661-0.661c5.834,0,11.671,0,17.504,0
	c0.499,0,0.665,0.165,0.665,0.664c0,6.519,0,13.037,0,19.556c0,0.478-0.175,0.652-0.647,0.652c-1.896,0.001-1.812,0.002-3.708-0.002
	c-0.452,0-0.712-0.32-0.565-0.685c0.104-0.251,0.311-0.311,0.567-0.311c1.48,0.005,0.978,0.001,2.459,0.001c0.288,0,0.575,0,0.886,0
	c0-2.66,0-5.291,0-7.952c-0.584,0-1.151,0-1.72,0c-0.224,0-0.446,0.002-0.667-0.003c-0.354-0.007-0.562-0.186-0.566-0.484
	c-0.005-0.31,0.213-0.505,0.576-0.508c0.706-0.002,1.414-0.001,2.119-0.001c0.077,0,0.157,0,0.253,0c0-3.308,0-6.599,0-9.912
	c-2.301,0-4.598,0-6.924,0c0,0.25,0,0.481,0,0.712c0,0.873,0.002,1.747,0,2.62c0,0.394-0.183,0.623-0.488,0.627
	c-0.304,0.004-0.502-0.235-0.502-0.619c-0.005-0.999-0.002-1.998-0.002-2.998c0-0.105,0-0.212,0-0.341
	C18.284,10.225,15.331,10.225,12.363,10.225z"/>
</svg>
