<?xml version="1.0" encoding="utf-8"?>
<!-- Generator: Adobe Illustrator 16.0.4, SVG Export Plug-In . SVG Version: 6.00 Build 0)  -->
<!DOCTYPE svg PUBLIC "-//W3C//DTD SVG 1.1//EN" "http://www.w3.org/Graphics/SVG/1.1/DTD/svg11.dtd">
<svg version="1.1" id="Layer_1" xmlns="http://www.w3.org/2000/svg" xmlns:xlink="http://www.w3.org/1999/xlink" x="0px" y="0px"
	 width="36px" height="36px" viewBox="0 0 36 36" enable-background="new 0 0 36 36" xml:space="preserve">
<g id="v6PJpm_1_">
	<g>
		<g>
			<path fill="none" d="M34.961,34.961c-11.306,0-22.611,0-33.917,0c0-11.333,0-22.667,0-34c11.306,0,22.611,0,33.917,0
				C34.961,12.294,34.961,23.628,34.961,34.961z M6.36,34.921c1.197,0,2.393,0,3.59-0.001c1.039,0,1.711-0.672,1.712-1.707
				c0-0.721,0-1.442,0-2.163c0-0.369,0-0.369,0.378-0.369c0.734,0,1.468,0.002,2.202,0c0.96-0.003,1.646-0.694,1.648-1.661
				c0.001-0.765,0.008-1.53-0.004-2.296c-0.003-0.227,0.075-0.296,0.293-0.285c0.322,0.015,0.646,0.005,0.969,0.003
				c0.438-0.003,0.815-0.154,1.127-0.468c0.622-0.625,1.25-1.245,1.866-1.876c0.125-0.128,0.237-0.145,0.407-0.114
				c0.692,0.122,1.386,0.279,2.084,0.322c1.523,0.094,3.014-0.119,4.46-0.627c1.685-0.592,3.158-1.52,4.422-2.776
				c0.759-0.755,1.396-1.607,1.919-2.544c0.898-1.607,1.385-3.336,1.479-5.171c0.054-1.047-0.053-2.088-0.296-3.108
				c-0.813-3.409-2.749-5.979-5.807-7.669c-2.271-1.255-4.714-1.659-7.28-1.272c-2.363,0.356-4.417,1.373-6.17,2.989
				c-1.158,1.068-2.055,2.334-2.696,3.779c-1.071,2.41-1.279,4.9-0.688,7.462c0.05,0.216,0.009,0.347-0.145,0.5
				c-3.41,3.409-6.812,6.825-10.221,10.234c-0.361,0.361-0.53,0.772-0.528,1.282c0.008,1.95,0.025,3.9-0.006,5.85
				c-0.014,0.869,0.699,1.719,1.696,1.693C3.967,34.897,5.164,34.921,6.36,34.921z"/>
			<path fill-rule="evenodd" clip-rule="evenodd" d="M6.36,34.921c-1.197,0-2.394-0.023-3.589,0.007
				c-0.997,0.025-1.71-0.824-1.696-1.693c0.031-1.949,0.015-3.899,0.006-5.85c-0.002-0.51,0.167-0.921,0.528-1.282
				c3.409-3.409,6.812-6.825,10.221-10.234c0.153-0.153,0.195-0.284,0.145-0.5c-0.591-2.562-0.383-5.052,0.688-7.462
				c0.642-1.445,1.538-2.711,2.696-3.779c1.752-1.617,3.807-2.633,6.17-2.989c2.566-0.387,5.01,0.017,7.28,1.272
				c3.058,1.69,4.993,4.261,5.807,7.669c0.243,1.021,0.35,2.061,0.296,3.108c-0.094,1.835-0.58,3.564-1.479,5.171
				c-0.522,0.937-1.16,1.789-1.919,2.544c-1.264,1.257-2.737,2.185-4.422,2.776c-1.446,0.508-2.937,0.721-4.46,0.627
				c-0.698-0.043-1.392-0.2-2.084-0.322c-0.17-0.03-0.282-0.014-0.407,0.114c-0.616,0.631-1.244,1.251-1.866,1.876
				c-0.312,0.313-0.689,0.465-1.127,0.468c-0.323,0.002-0.647,0.012-0.969-0.003c-0.218-0.011-0.296,0.059-0.293,0.285
				c0.012,0.766,0.006,1.531,0.004,2.296c-0.001,0.967-0.688,1.658-1.648,1.661c-0.734,0.002-1.468,0-2.202,0
				c-0.378,0-0.378,0-0.378,0.369c0,0.721,0,1.442,0,2.163c0,1.035-0.673,1.707-1.712,1.707C8.753,34.921,7.557,34.921,6.36,34.921z
				 M6.365,32.795c0.961,0,1.923,0,2.885,0c0.289-0.001,0.292-0.005,0.293-0.299c0-1.215,0-2.429,0-3.643
				c0-0.291,0.006-0.297,0.296-0.297c1.211-0.001,2.422,0,3.633-0.001c0.294,0,0.298-0.004,0.299-0.293c0-1.199,0-2.398,0-3.599
				c0-0.347,0-0.347,0.356-0.347c0.852-0.001,1.703-0.004,2.554,0.003c0.175,0.001,0.303-0.054,0.427-0.178
				c0.804-0.805,1.621-1.598,2.418-2.409c0.176-0.178,0.323-0.187,0.542-0.106c1.431,0.525,2.905,0.691,4.416,0.488
				c2.514-0.339,4.589-1.484,6.186-3.459c1.619-2.002,2.301-4.305,2.077-6.871c-0.115-1.321-0.498-2.564-1.14-3.727
				c-0.924-1.676-2.237-2.958-3.923-3.849c-1.155-0.611-2.392-0.95-3.699-1.05c-1.287-0.099-2.537,0.061-3.75,0.472
				c-1.648,0.559-3.046,1.504-4.178,2.834c-1.391,1.634-2.156,3.529-2.272,5.669c-0.071,1.296,0.101,2.57,0.571,3.79
				c0.087,0.226,0.05,0.37-0.122,0.541c-2.438,2.423-4.871,4.853-7.303,7.282c-0.55,0.551-1.087,1.114-1.637,1.665
				c-0.633,0.634-1.272,1.261-1.91,1.889c-0.128,0.126-0.184,0.269-0.183,0.453c0.005,1.589,0.006,3.179-0.001,4.768
				c0,0.213,0.069,0.279,0.279,0.277C4.441,32.79,5.403,32.795,6.365,32.795z"/>
			<path fill-rule="evenodd" clip-rule="evenodd" fill="none" d="M6.365,32.795c-0.961,0-1.923-0.005-2.885,0.004
				c-0.209,0.002-0.279-0.064-0.279-0.277c0.007-1.589,0.006-3.179,0.001-4.768c0-0.185,0.055-0.327,0.183-0.453
				c0.638-0.628,1.277-1.255,1.91-1.889c0.55-0.551,1.086-1.114,1.637-1.665c2.432-2.43,4.864-4.859,7.303-7.282
				c0.171-0.17,0.208-0.315,0.122-0.541c-0.47-1.219-0.642-2.494-0.571-3.79c0.117-2.141,0.882-4.035,2.272-5.669
				c1.132-1.33,2.53-2.275,4.178-2.834c1.213-0.411,2.463-0.571,3.75-0.472c1.308,0.101,2.544,0.439,3.699,1.05
				c1.686,0.891,2.999,2.172,3.923,3.849c0.642,1.163,1.024,2.406,1.14,3.727c0.224,2.566-0.458,4.869-2.077,6.871
				c-1.597,1.975-3.672,3.12-6.186,3.459c-1.511,0.203-2.985,0.037-4.416-0.488c-0.219-0.08-0.366-0.071-0.542,0.106
				c-0.798,0.812-1.614,1.604-2.418,2.409c-0.124,0.124-0.252,0.179-0.427,0.178c-0.851-0.007-1.703-0.004-2.554-0.003
				c-0.355,0-0.356,0-0.356,0.347c0,1.2,0,2.399,0,3.599c0,0.289-0.005,0.293-0.299,0.293c-1.211,0.001-2.422,0-3.633,0.001
				c-0.29,0-0.296,0.006-0.296,0.297c-0.001,1.214,0,2.428,0,3.643c0,0.294-0.004,0.298-0.293,0.299
				C8.288,32.795,7.326,32.795,6.365,32.795z M26.462,12.665c1.735-0.001,3.172-1.439,3.172-3.174
				c-0.001-1.752-1.436-3.19-3.181-3.189c-1.739,0.001-3.169,1.435-3.167,3.175C23.288,11.238,24.711,12.666,26.462,12.665z"/>
			<path fill-rule="evenodd" clip-rule="evenodd" d="M26.462,12.665c-1.751,0.001-3.174-1.427-3.176-3.188
				c-0.002-1.74,1.428-3.173,3.167-3.175c1.745-0.001,3.18,1.437,3.181,3.189C29.634,11.226,28.197,12.664,26.462,12.665z
				 M26.465,10.805c0.708-0.002,1.314-0.602,1.312-1.301c-0.001-0.745-0.587-1.342-1.316-1.342c-0.73,0-1.323,0.589-1.319,1.311
				C25.146,10.222,25.727,10.806,26.465,10.805z"/>
			<path fill-rule="evenodd" clip-rule="evenodd" fill="none" d="M26.465,10.805c-0.738,0.001-1.319-0.583-1.323-1.332
				c-0.004-0.721,0.589-1.311,1.319-1.311c0.729,0,1.315,0.597,1.316,1.342C27.779,10.203,27.173,10.803,26.465,10.805z"/>
		</g>
	</g>
</g>
</svg>
