<?xml version="1.0" encoding="utf-8"?>
<!-- Generator: Adobe Illustrator 16.0.4, SVG Export Plug-In . SVG Version: 6.00 Build 0)  -->
<!DOCTYPE svg PUBLIC "-//W3C//DTD SVG 1.1//EN" "http://www.w3.org/Graphics/SVG/1.1/DTD/svg11.dtd">
<svg version="1.1" id="Layer_1" xmlns="http://www.w3.org/2000/svg" xmlns:xlink="http://www.w3.org/1999/xlink" x="0px" y="0px"
	 width="36px" height="36px" viewBox="0 0 36 36" enable-background="new 0 0 36 36" xml:space="preserve">
<g id="BYzxMJ_1_">
	<g>
		<g>
			<path fill="none" d="M35.039,35.002c-11.333,0-22.667,0-34,0c0-11.333,0-22.667,0-34c11.333,0,22.667,0,34,0
				C35.039,12.335,35.039,23.669,35.039,35.002z M14.25,34.957c3.429,0,6.857,0,10.285,0c1.683-0.001,2.924-1.398,2.925-3.295
				c0.001-3.113,0-6.226-0.001-9.338c0-0.109-0.002-0.224-0.029-0.327c-0.091-0.342-0.429-0.478-0.694-0.282
				c-0.071,0.052-0.136,0.116-0.195,0.184c-0.552,0.617-1.1,1.24-1.654,1.854c-0.175,0.193-0.252,0.41-0.251,0.688
				c0.006,2.325,0.004,4.65,0.004,6.976c0,0.365-0.001,0.365-0.321,0.365c-5.79,0-11.581,0-17.371,0
				c-0.936,0-1.872-0.004-2.807,0.003c-0.175,0.002-0.261-0.057-0.238-0.264c0.005-0.043,0.001-0.088,0.001-0.132
				c0-7.285,0-14.57,0-21.855c0-0.294,0.002-0.588,0-0.883c-0.001-0.126,0.043-0.195,0.162-0.19
				c0.059,0.002,0.118-0.001,0.177-0.001c4.573,0,9.147-0.001,13.72,0.004c0.254,0,0.452-0.091,0.628-0.293
				c0.537-0.614,1.082-1.218,1.622-1.829c0.068-0.078,0.137-0.161,0.186-0.254c0.178-0.338-0.003-0.745-0.351-0.794
				c-0.065-0.009-0.131-0.007-0.196-0.007c-5.293,0-10.586,0-15.879,0c-1.635,0-2.889,1.407-2.89,3.241c0,7.719,0,15.438,0,23.157
				c0,1.868,1.246,3.271,2.904,3.271C7.406,34.957,10.828,34.957,14.25,34.957z M35,7.8c-0.036-1.035-0.328-1.959-0.984-2.708
				c-0.868-0.99-1.734-1.984-2.626-2.947c-0.842-0.909-1.862-1.249-3.016-1.02c-0.724,0.144-1.329,0.542-1.849,1.127
				c-3.699,4.165-7.402,8.325-11.104,12.487c-1.379,1.55-2.758,3.1-4.134,4.653c-0.079,0.09-0.168,0.209-0.182,0.325
				c-0.081,0.691-0.141,1.386-0.208,2.08c-0.099,1.008-0.205,2.015-0.297,3.022c-0.045,0.502-0.136,0.998-0.059,1.514
				c0.197,1.313,1.348,2.365,2.517,2.255c0.611-0.059,1.221-0.148,1.831-0.226c1.117-0.142,2.232-0.292,3.35-0.42
				c0.199-0.022,0.34-0.102,0.476-0.255c4.508-5.074,9.02-10.146,13.531-15.218c0.61-0.687,1.227-1.366,1.825-2.065
				C34.689,9.685,34.957,8.793,35,7.8z"/>
			<path fill-rule="evenodd" clip-rule="evenodd" d="M14.25,34.957c-3.422,0-6.844,0-10.266,0c-1.658-0.001-2.903-1.403-2.904-3.271
				c0-7.719,0-15.438,0-23.157c0-1.833,1.255-3.241,2.89-3.241c5.293-0.001,10.586,0,15.879,0c0.065,0,0.131-0.002,0.196,0.007
				c0.348,0.049,0.528,0.456,0.351,0.794c-0.049,0.094-0.117,0.177-0.186,0.254c-0.54,0.611-1.085,1.215-1.622,1.829
				c-0.177,0.202-0.374,0.293-0.628,0.293C13.388,8.46,8.814,8.461,4.241,8.461c-0.059,0-0.118,0.003-0.177,0.001
				c-0.118-0.005-0.163,0.063-0.162,0.19c0.002,0.294,0,0.588,0,0.883c0,7.285,0,14.57,0,21.855c0,0.044,0.004,0.089-0.001,0.132
				c-0.022,0.207,0.063,0.266,0.238,0.264c0.936-0.007,1.871-0.003,2.807-0.003c5.79,0,11.581,0,17.371,0
				c0.32,0,0.321,0,0.321-0.365c0-2.325,0.002-4.65-0.004-6.976c-0.001-0.278,0.076-0.495,0.251-0.688
				c0.555-0.614,1.103-1.237,1.654-1.854c0.06-0.067,0.124-0.132,0.195-0.184c0.266-0.195,0.604-0.06,0.694,0.282
				c0.027,0.104,0.029,0.218,0.029,0.327c0.001,3.112,0.002,6.225,0.001,9.338c-0.001,1.896-1.242,3.294-2.925,3.295
				C21.107,34.957,17.679,34.957,14.25,34.957z"/>
			<path fill-rule="evenodd" clip-rule="evenodd" d="M35,7.8c-0.043,0.993-0.311,1.884-0.93,2.606
				c-0.599,0.699-1.215,1.378-1.825,2.065c-4.511,5.072-9.022,10.144-13.531,15.218c-0.136,0.153-0.277,0.232-0.476,0.255
				c-1.118,0.128-2.233,0.278-3.35,0.42c-0.61,0.077-1.219,0.167-1.831,0.226c-1.169,0.11-2.32-0.941-2.517-2.255
				c-0.077-0.516,0.014-1.012,0.059-1.514c0.092-1.008,0.198-2.015,0.297-3.022c0.068-0.694,0.127-1.389,0.208-2.08
				c0.014-0.116,0.103-0.235,0.182-0.325c1.376-1.554,2.755-3.103,4.134-4.653c3.701-4.162,7.404-8.322,11.104-12.487
				c0.52-0.585,1.125-0.984,1.849-1.127c1.153-0.229,2.174,0.11,3.016,1.02c0.892,0.963,1.758,1.957,2.626,2.947
				C34.672,5.841,34.964,6.766,35,7.8z M13.38,25.344c0.055,0.012,0.075,0.021,0.093,0.019c1.162-0.145,2.324-0.289,3.485-0.437
				c0.161-0.021,0.306-0.062,0.436-0.208c3.539-3.989,7.083-7.973,10.628-11.954c0.135-0.151,0.135-0.237,0-0.387
				c-1.036-1.154-2.068-2.314-3.093-3.481c-0.144-0.163-0.222-0.152-0.358,0.004c-0.951,1.083-1.911,2.157-2.869,3.234
				c-2.585,2.908-5.17,5.816-7.751,8.729c-0.08,0.091-0.146,0.231-0.159,0.357c-0.111,0.998-0.209,1.998-0.309,2.998
				C13.447,24.59,13.416,24.961,13.38,25.344z M32.217,7.816c-0.038-0.291-0.17-0.482-0.325-0.656
				c-0.793-0.884-1.588-1.767-2.382-2.651c-0.344-0.383-0.66-0.395-1.005-0.014c-0.551,0.607-1.091,1.226-1.64,1.835
				c-0.095,0.105-0.103,0.179-0.004,0.29c1.065,1.194,2.128,2.39,3.188,3.589c0.088,0.1,0.152,0.105,0.243,0.002
				c0.561-0.638,1.131-1.265,1.685-1.911C32.088,8.172,32.139,7.979,32.217,7.816z"/>
			<path fill-rule="evenodd" clip-rule="evenodd" fill="none" d="M13.38,25.344c0.035-0.383,0.067-0.754,0.104-1.124
				c0.1-1,0.198-2,0.309-2.998c0.014-0.126,0.079-0.267,0.159-0.357c2.581-2.913,5.166-5.821,7.751-8.729
				c0.958-1.077,1.918-2.151,2.869-3.234c0.137-0.156,0.215-0.167,0.358-0.004c1.024,1.167,2.057,2.327,3.093,3.481
				c0.135,0.15,0.135,0.236,0,0.387c-3.546,3.98-7.09,7.964-10.628,11.954c-0.13,0.146-0.275,0.188-0.436,0.208
				c-1.162,0.147-2.323,0.292-3.485,0.437C13.455,25.364,13.436,25.355,13.38,25.344z"/>
			<path fill-rule="evenodd" clip-rule="evenodd" fill="none" d="M32.217,7.816c-0.078,0.163-0.129,0.356-0.239,0.485
				c-0.554,0.646-1.124,1.273-1.685,1.911c-0.091,0.103-0.155,0.097-0.243-0.002c-1.061-1.199-2.123-2.395-3.188-3.589
				c-0.099-0.11-0.091-0.184,0.004-0.29c0.549-0.609,1.089-1.228,1.64-1.835c0.345-0.381,0.661-0.369,1.005,0.014
				c0.794,0.884,1.589,1.767,2.382,2.651C32.047,7.334,32.179,7.525,32.217,7.816z"/>
		</g>
	</g>
</g>
</svg>
