<?xml version="1.0" encoding="utf-8"?>
<!-- Generator: Adobe Illustrator 16.0.4, SVG Export Plug-In . SVG Version: 6.00 Build 0)  -->
<!DOCTYPE svg PUBLIC "-//W3C//DTD SVG 1.1//EN" "http://www.w3.org/Graphics/SVG/1.1/DTD/svg11.dtd">
<svg version="1.1" id="Layer_1" xmlns="http://www.w3.org/2000/svg" xmlns:xlink="http://www.w3.org/1999/xlink" x="0px" y="0px"
	 width="35.75px" height="36px" viewBox="475.5 294.5 35.75 36" enable-background="new 475.5 294.5 35.75 36" xml:space="preserve"
	>
<g id="Layer_1_1_">
</g>
<g id="Layer_2">
	<path d="M495.876,306.209c0.01-2.188,0.295-4.195,0.896-6.08c0.12-0.376,0.323-0.63,0.659-0.822c1.488-0.844,2.97-1.701,4.448-2.56
		c0.327-0.194,0.77-0.292,1.095,0.021c0.416,0.396,0.195,0.861,0.089,1.086c-0.724,1.523-1.188,3.174-1.402,5.002l-1.632,0.945
		c0.036-0.583,0.084-1.169,0.17-1.748c0.12-0.807,0.312-1.613,0.501-2.395c0.038-0.157,0.076-0.314,0.113-0.473l-0.187,0.106
		c-0.682,0.396-1.373,0.8-2.072,1.187c-0.217,0.119-0.328,0.258-0.397,0.496c-0.396,1.354-0.62,2.779-0.692,4.312L495.876,306.209z
		 M481.749,308.651l4.966,2.87l1.565-0.908c-0.585-0.338-1.17-0.679-1.756-1.017c-1.349-0.777-2.695-1.557-4.039-2.342
		c-1.782-1.042-2.673-3.162-2.219-5.272c0.43-1.984,2.208-3.568,4.231-3.768c0.176-0.018,0.35-0.025,0.521-0.025
		c1.98,0,3.705,1.104,4.5,2.879c0.885,1.969,0.409,4.197-1.207,5.681l-0.699,0.638l2.851,1.96l1.506-0.873
		c-0.354-0.242-0.705-0.487-1.059-0.729l-0.823-0.564c-0.003-0.002-0.005-0.004-0.008-0.006c1.676-2.104,1.917-4.962,0.613-7.279
		c-1.155-2.052-3.271-3.276-5.66-3.276c-0.288,0-0.581,0.019-0.87,0.055c-2.717,0.345-4.919,2.435-5.481,5.2
		C478.146,304.507,479.407,307.295,481.749,308.651z M489.938,317.729l-0.177,0.121c0.648,0.829,1.073,1.709,1.296,2.683
		c0.408,1.792,0.018,3.687-1.073,5.196c-1.092,1.51-2.767,2.477-4.596,2.651c-2.02,0.19-3.918-0.51-5.302-1.913
		c-1.207-1.224-1.857-2.841-1.835-4.554c0.034-2.444,1.113-4.312,3.208-5.552c1.352-0.801,2.711-1.581,4.071-2.363l0.023,0.014
		l9.529-5.527c0.213-0.121,0.422-0.248,0.636-0.366c0.004-0.002,0.004-0.005,0.008-0.007l2.734-1.586
		c0.439-0.254,0.879-0.511,1.319-0.754c0.02-0.012,0.023-0.023,0.039-0.034l1.705-0.989c0,0.002,0,0.005,0,0.007l0.446-0.257
		c0.676-0.388,1.332-0.766,1.985-1.151c0.277-0.162,0.515-0.183,0.803-0.069c0.864,0.34,1.732,0.672,2.622,1.013l1.34,0.514
		l-0.713,0.514l-1.607,1.104C504.959,307.41,491.08,316.941,489.938,317.729z M505.376,305.212
		c-0.233-0.085-0.451-0.168-0.662-0.266c-0.073-0.033-0.137-0.05-0.194-0.05c-0.073,0-0.152,0.025-0.256,0.086
		c-5.058,2.93-10.117,5.854-15.177,8.779l-6.885,3.981c-1.811,1.046-2.722,3.155-2.271,5.248c0.436,2.004,2.214,3.61,4.23,3.821
		c2.141,0.218,4.172-0.941,5.034-2.847c0.889-1.969,0.42-4.199-1.195-5.686l-0.709-0.649L505.376,305.212z M488.521,321.946
		c-0.005,2.082-1.701,3.777-3.783,3.779h-0.002c-2.118,0-3.844-1.729-3.846-3.855c-0.002-0.947,0.387-1.856,1.09-2.562
		c0.734-0.734,1.743-1.156,2.77-1.156c1.012,0.001,1.959,0.396,2.671,1.113C488.133,319.983,488.523,320.935,488.521,321.946z
		 M484.724,324.16c1.218,0,2.214-0.991,2.229-2.21c0.008-0.584-0.22-1.141-0.64-1.564c-0.42-0.426-0.974-0.66-1.558-0.66v-0.249l0,0
		l-0.004,0.249c-1.241,0.003-2.288,0.99-2.286,2.157C482.467,323.113,483.501,324.156,484.724,324.16z M484.736,325.477
		L484.736,325.477L484.736,325.477L484.736,325.477z M488.848,303.072c0.003,1.019-0.387,1.972-1.098,2.685
		c-0.695,0.697-1.617,1.081-2.597,1.081h-0.013c-1.037-0.003-2.023-0.389-2.776-1.087c-0.761-0.703-1.177-1.624-1.172-2.592
		c0.007-2.101,1.774-3.874,3.86-3.875C487.141,299.284,488.842,300.982,488.848,303.072z M482.779,303.163
		c-0.002,0.497,0.213,0.986,0.603,1.379c0.463,0.464,1.108,0.73,1.772,0.731c0,0,0,0,0.001,0c0.565,0,1.095-0.227,1.491-0.636
		c0.396-0.411,0.616-0.962,0.616-1.55c0-1.243-0.968-2.218-2.203-2.218C483.806,300.871,482.782,301.899,482.779,303.163z
		 M485.153,306.587L485.153,306.587L485.153,306.587L485.153,306.587z M492.73,312.26c0.006,0.406,0.332,0.726,0.734,0.721
		c0.4-0.006,0.729-0.344,0.723-0.74c-0.009-0.403-0.335-0.718-0.742-0.714C493.031,311.53,492.727,311.844,492.73,312.26z
		 M500.77,312.244L500.77,312.244 M503.645,321.312v2.385c0,1.415,0,2.83-0.006,4.245c-0.002,0.483-0.314,0.836-0.745,0.836
		c-0.174,0-0.352-0.062-0.516-0.173c-1.52-1.048-2.686-1.864-3.78-2.65c-0.216-0.156-0.342-0.454-0.367-0.665
		c-0.288-2.453-0.562-4.906-0.831-7.36c-0.022-0.194-0.457-2.834-0.493-3.049l1.436-0.979c0.586,3.544,1.184,7.203,1.435,10.854
		c0.004,0.047,0.063,0.148,0.128,0.194c0.524,0.383,1.059,0.754,1.594,1.126l0.585,0.406l0.004-0.149
		c0.055-2.31,0.107-4.49-0.185-6.679c-0.293-2.202-0.64-4.35-1.006-6.622c-0.041-0.264-0.084-0.524-0.126-0.788l1.421-0.969
		c0.1,0.562,0.196,1.122,0.296,1.684c0.174,0.997,0.347,1.994,0.525,2.99C503.021,316.001,503.532,320.027,503.645,321.312z
		 M495.601,316.662c-0.159-0.092-0.319-0.186-0.479-0.276c-0.076-0.044-0.152-0.088-0.229-0.132l0.604-0.409L495.601,316.662z
		 M505.123,320.039c0.118,0.769,0.064,1.654,0.088,1.646c0.836-0.308,1.668-0.627,2.498-0.946l0.584-0.226
		c0.066-0.024,0.132-0.058,0.205-0.095l0.491-0.235l-0.472-0.34c-0.068-0.051-0.13-0.095-0.19-0.137l-1.09-0.749
		c-0.792-0.543-1.583-1.087-2.373-1.632c0,0,0.051,1.019,0.172,2.054l0.667,0.437"/>
</g>
</svg>
