<?xml version="1.0" encoding="utf-8"?>
<!-- Generator: Adobe Illustrator 16.0.4, SVG Export Plug-In . SVG Version: 6.00 Build 0)  -->
<!DOCTYPE svg PUBLIC "-//W3C//DTD SVG 1.1//EN" "http://www.w3.org/Graphics/SVG/1.1/DTD/svg11.dtd">
<svg version="1.1" id="Layer_1" xmlns="http://www.w3.org/2000/svg" xmlns:xlink="http://www.w3.org/1999/xlink" x="0px" y="0px"
	 width="35.75px" height="36px" viewBox="475.5 294.5 35.75 36" enable-background="new 475.5 294.5 35.75 36" xml:space="preserve"
	>
<g id="Layer_1_1_">
</g>
<g id="_x33_oOmbP_1_">
	<g>
		<g>
			<path fill="none" d="M479.084,328.901c-0.828,0-1.657,0-2.485,0c0-10.902,0-21.804,0-32.718c9.256,0,18.511,0,27.767,0
				c-0.05,0.029-0.097,0.074-0.149,0.084c-0.553,0.105-0.995,0.427-1.382,0.85c-4.394,4.805-8.786,9.611-13.179,14.417
				c-1.583,1.732-3.167,3.464-4.746,5.199c-0.083,0.091-0.171,0.215-0.185,0.333c-0.104,0.912-0.189,1.826-0.282,2.739
				c-0.099,0.963-0.206,1.924-0.295,2.887c-0.032,0.356-0.081,0.73-0.019,1.074c0.134,0.737,0.77,1.118,1.53,1
				c0.486-0.076,0.975-0.136,1.463-0.194c1.245-0.148,2.491-0.294,3.738-0.437c0.254-0.029,0.466-0.096,0.665-0.314
				c5.301-5.814,10.61-11.619,15.917-17.429c0.727-0.796,1.473-1.574,2.155-2.413c0.871-1.07,0.793-2.621-0.128-3.635
				c-0.999-1.101-1.999-2.198-3.008-3.287c-0.363-0.392-0.785-0.692-1.306-0.786c-0.06-0.012-0.113-0.058-0.17-0.088
				c1.747,0,3.494,0,5.241,0c0,10.906,0,21.812,0,32.718c-3.315,0-6.628,0-9.94,0c0.082-0.037,0.161-0.086,0.245-0.107
				c1.326-0.344,2.204-1.553,2.204-3.043c0.001-3.412,0.001-6.825,0-10.238c0-0.078,0.021-0.17-0.009-0.231
				c-0.054-0.11-0.12-0.237-0.214-0.296c-0.172-0.108-0.321-0.001-0.448,0.137c-0.339,0.37-0.674,0.745-1.018,1.109
				c-0.132,0.14-0.184,0.292-0.183,0.49c0.005,1.176,0.002,2.351,0.002,3.526c0,1.806,0.001,3.611,0,5.417
				c-0.001,0.361-0.086,0.688-0.356,0.925c-0.227,0.199-0.497,0.226-0.771,0.226c-6.705,0.001-13.41,0.001-20.115,0
				c-0.052,0-0.104,0.001-0.155-0.002c-0.301-0.022-0.572-0.119-0.764-0.394c-0.171-0.244-0.202-0.528-0.202-0.824
				c0.001-6.352,0-12.703,0-19.056c0-1.033,0.001-2.067,0-3.101c0-0.363,0.116-0.667,0.383-0.887
				c0.211-0.175,0.461-0.206,0.719-0.206c5.178,0.002,10.355,0,15.532,0.005c0.22,0.001,0.384-0.073,0.533-0.242
				c0.297-0.336,0.599-0.667,0.906-0.99c0.159-0.169,0.28-0.346,0.19-0.597c-0.092-0.258-0.306-0.22-0.498-0.22
				c-5.604,0-11.21-0.002-16.814,0.006c-0.28,0-0.568,0.047-0.839,0.13c-1.138,0.347-1.981,1.578-1.981,2.862
				c0,7.506,0,15.012,0,22.518c0,0.127-0.001,0.256,0.018,0.381c0.201,1.355,1.017,2.301,2.243,2.61
				C478.961,328.826,479.021,328.87,479.084,328.901z"/>
			<path fill-rule="evenodd" clip-rule="evenodd" d="M504.986,296.184c0.057,0.03,0.11,0.076,0.17,0.088
				c0.521,0.094,0.942,0.395,1.306,0.786c1.009,1.089,2.009,2.187,3.008,3.287c0.921,1.014,0.999,2.564,0.128,3.635
				c-0.683,0.839-1.429,1.617-2.155,2.413c-5.307,5.81-10.616,11.614-15.917,17.429c-0.199,0.219-0.411,0.285-0.665,0.314
				c-1.247,0.143-2.493,0.288-3.738,0.437c-0.488,0.059-0.977,0.118-1.463,0.194c-0.761,0.118-1.396-0.263-1.53-1
				c-0.062-0.344-0.014-0.718,0.019-1.074c0.089-0.963,0.196-1.924,0.295-2.887c0.093-0.913,0.179-1.827,0.282-2.739
				c0.014-0.118,0.102-0.242,0.185-0.333c1.579-1.735,3.163-3.467,4.746-5.199c4.393-4.806,8.785-9.612,13.179-14.417
				c0.387-0.423,0.829-0.744,1.382-0.85c0.053-0.01,0.1-0.055,0.149-0.084C504.572,296.184,504.779,296.184,504.986,296.184z
				 M486.341,322.609c0.129-0.015,0.309-0.035,0.488-0.057c1.015-0.123,2.028-0.256,3.044-0.364
				c0.361-0.038,0.658-0.138,0.915-0.453c0.407-0.501,0.861-0.957,1.295-1.432c0.617-0.675,1.234-1.351,1.852-2.025
				c0.672-0.735,1.344-1.471,2.016-2.206c0.576-0.63,1.154-1.258,1.728-1.892c0.368-0.407,0.726-0.826,1.096-1.231
				c1.683-1.845,3.366-3.687,5.052-5.527c0.111-0.12,0.168-0.203,0.024-0.358c-1.194-1.296-2.384-2.599-3.569-3.903
				c-0.117-0.129-0.191-0.115-0.3,0.007c-0.37,0.416-0.748,0.823-1.123,1.233c-4.05,4.431-8.101,8.86-12.146,13.295
				c-0.097,0.106-0.181,0.271-0.196,0.417c-0.153,1.418-0.292,2.838-0.434,4.257C486.057,322.606,486.075,322.625,486.341,322.609z
				 M508.36,302.237c-0.104-0.187-0.174-0.391-0.301-0.532c-0.938-1.044-1.888-2.076-2.835-3.109
				c-0.068-0.074-0.143-0.146-0.224-0.202c-0.235-0.167-0.53-0.136-0.729,0.081c-0.889,0.969-1.774,1.942-2.664,2.91
				c-0.097,0.106-0.113,0.182-0.008,0.297c1.205,1.312,2.408,2.629,3.609,3.947c0.096,0.105,0.163,0.1,0.256-0.003
				c0.891-0.979,1.786-1.95,2.671-2.934C508.233,302.586,508.274,302.419,508.36,302.237z"/>
			<path fill-rule="evenodd" clip-rule="evenodd" d="M479.084,328.901c-0.063-0.031-0.123-0.075-0.188-0.092
				c-1.226-0.31-2.042-1.255-2.243-2.61c-0.019-0.125-0.018-0.254-0.018-0.381c-0.001-7.506-0.001-15.012,0-22.518
				c0-1.284,0.844-2.516,1.981-2.862c0.271-0.083,0.559-0.13,0.839-0.13c5.604-0.008,11.21-0.006,16.814-0.006
				c0.192,0,0.406-0.038,0.498,0.22c0.09,0.251-0.031,0.428-0.19,0.597c-0.308,0.323-0.609,0.654-0.906,0.99
				c-0.149,0.169-0.313,0.243-0.533,0.242c-5.177-0.005-10.354-0.003-15.532-0.005c-0.257,0-0.507,0.031-0.719,0.206
				c-0.267,0.22-0.383,0.523-0.383,0.887c0.001,1.033,0,2.067,0,3.101c0,6.353,0,12.704,0,19.056c0,0.296,0.031,0.58,0.202,0.824
				c0.192,0.274,0.463,0.371,0.764,0.394c0.052,0.003,0.104,0.002,0.155,0.002c6.705,0.001,13.41,0.001,20.115,0
				c0.274,0,0.545-0.026,0.771-0.226c0.271-0.237,0.355-0.563,0.356-0.925c0.001-1.806,0-3.611,0-5.417
				c0-1.176,0.003-2.351-0.002-3.526c-0.001-0.198,0.051-0.351,0.183-0.49c0.344-0.364,0.679-0.739,1.018-1.109
				c0.127-0.138,0.276-0.245,0.448-0.137c0.094,0.059,0.16,0.186,0.214,0.296c0.029,0.062,0.009,0.153,0.009,0.231
				c0.001,3.413,0.001,6.826,0,10.238c0,1.49-0.878,2.699-2.204,3.043c-0.084,0.021-0.163,0.07-0.245,0.107
				C493.22,328.901,486.151,328.901,479.084,328.901z"/>
			<path fill-rule="evenodd" clip-rule="evenodd" fill="none" d="M486.341,322.609c-0.266,0.016-0.284-0.003-0.26-0.24
				c0.142-1.419,0.28-2.839,0.434-4.257c0.016-0.146,0.1-0.311,0.196-0.417c4.046-4.435,8.097-8.864,12.146-13.295
				c0.375-0.41,0.753-0.817,1.123-1.233c0.108-0.122,0.183-0.136,0.3-0.007c1.186,1.305,2.375,2.607,3.569,3.903
				c0.144,0.155,0.087,0.238-0.024,0.358c-1.686,1.841-3.369,3.683-5.052,5.527c-0.37,0.405-0.728,0.824-1.096,1.231
				c-0.573,0.634-1.151,1.262-1.728,1.892c-0.672,0.735-1.344,1.471-2.016,2.206c-0.617,0.675-1.234,1.351-1.852,2.025
				c-0.434,0.475-0.888,0.931-1.295,1.432c-0.257,0.315-0.554,0.415-0.915,0.453c-1.016,0.108-2.029,0.241-3.044,0.364
				C486.649,322.574,486.47,322.595,486.341,322.609z"/>
			<path fill-rule="evenodd" clip-rule="evenodd" fill="none" d="M508.36,302.237c-0.086,0.182-0.127,0.349-0.224,0.455
				c-0.885,0.983-1.78,1.955-2.671,2.934c-0.093,0.103-0.16,0.108-0.256,0.003c-1.201-1.318-2.404-2.635-3.609-3.947
				c-0.105-0.115-0.089-0.19,0.008-0.297c0.89-0.968,1.775-1.941,2.664-2.91c0.198-0.217,0.493-0.248,0.729-0.081
				c0.081,0.057,0.155,0.128,0.224,0.202c0.947,1.033,1.896,2.065,2.835,3.109C508.187,301.847,508.257,302.051,508.36,302.237z"/>
		</g>
	</g>
</g>
</svg>
